<mxfile host="app.diagrams.net" agent="Mozilla/5.0 (Windows NT 10.0; Win64; x64) AppleWebKit/537.36 (KHTML, like Gecko) Chrome/137.0.0.0 Safari/537.36" version="27.1.5">
  <diagram name="Page-1" id="orAvbQSQmHUDCHo70LKo">
    <mxGraphModel dx="1090" dy="581" grid="1" gridSize="10" guides="1" tooltips="1" connect="1" arrows="1" fold="1" page="1" pageScale="1" pageWidth="850" pageHeight="1100" math="0" shadow="0">
      <root>
        <mxCell id="0" />
        <mxCell id="1" parent="0" />
        <mxCell id="3qFaxTtZR_sUx9hn0ahr-9" value="" style="shape=umlLifeline;perimeter=lifelinePerimeter;whiteSpace=wrap;html=1;container=1;dropTarget=0;collapsible=0;recursiveResize=0;outlineConnect=0;portConstraint=eastwest;newEdgeStyle={&quot;curved&quot;:0,&quot;rounded&quot;:0};participant=umlActor;" vertex="1" parent="1">
          <mxGeometry x="130" y="120" width="20" height="700" as="geometry" />
        </mxCell>
        <mxCell id="3qFaxTtZR_sUx9hn0ahr-14" value="" style="html=1;points=[[0,0,0,0,5],[0,1,0,0,-5],[1,0,0,0,5],[1,1,0,0,-5]];perimeter=orthogonalPerimeter;outlineConnect=0;targetShapes=umlLifeline;portConstraint=eastwest;newEdgeStyle={&quot;curved&quot;:0,&quot;rounded&quot;:0};" vertex="1" parent="3qFaxTtZR_sUx9hn0ahr-9">
          <mxGeometry x="5" y="80" width="10" height="40" as="geometry" />
        </mxCell>
        <mxCell id="3qFaxTtZR_sUx9hn0ahr-117" value="" style="html=1;points=[[0,0,0,0,5],[0,1,0,0,-5],[1,0,0,0,5],[1,1,0,0,-5]];perimeter=orthogonalPerimeter;outlineConnect=0;targetShapes=umlLifeline;portConstraint=eastwest;newEdgeStyle={&quot;curved&quot;:0,&quot;rounded&quot;:0};" vertex="1" parent="3qFaxTtZR_sUx9hn0ahr-9">
          <mxGeometry x="5" y="510" width="10" height="40" as="geometry" />
        </mxCell>
        <mxCell id="3qFaxTtZR_sUx9hn0ahr-11" value="GameScreenController" style="shape=umlLifeline;perimeter=lifelinePerimeter;whiteSpace=wrap;html=1;container=1;dropTarget=0;collapsible=0;recursiveResize=0;outlineConnect=0;portConstraint=eastwest;newEdgeStyle={&quot;curved&quot;:0,&quot;rounded&quot;:0};" vertex="1" parent="1">
          <mxGeometry x="240" y="120" width="140" height="700" as="geometry" />
        </mxCell>
        <mxCell id="3qFaxTtZR_sUx9hn0ahr-41" value="" style="html=1;points=[[0,0,0,0,5],[0,1,0,0,-5],[1,0,0,0,5],[1,1,0,0,-5]];perimeter=orthogonalPerimeter;outlineConnect=0;targetShapes=umlLifeline;portConstraint=eastwest;newEdgeStyle={&quot;curved&quot;:0,&quot;rounded&quot;:0};" vertex="1" parent="3qFaxTtZR_sUx9hn0ahr-11">
          <mxGeometry x="65" y="80" width="10" height="70" as="geometry" />
        </mxCell>
        <mxCell id="3qFaxTtZR_sUx9hn0ahr-100" value="" style="html=1;points=[[0,0,0,0,5],[0,1,0,0,-5],[1,0,0,0,5],[1,1,0,0,-5]];perimeter=orthogonalPerimeter;outlineConnect=0;targetShapes=umlLifeline;portConstraint=eastwest;newEdgeStyle={&quot;curved&quot;:0,&quot;rounded&quot;:0};" vertex="1" parent="3qFaxTtZR_sUx9hn0ahr-11">
          <mxGeometry x="65" y="370" width="10" height="30" as="geometry" />
        </mxCell>
        <mxCell id="3qFaxTtZR_sUx9hn0ahr-12" value="Scene" style="shape=umlLifeline;perimeter=lifelinePerimeter;whiteSpace=wrap;html=1;container=1;dropTarget=0;collapsible=0;recursiveResize=0;outlineConnect=0;portConstraint=eastwest;newEdgeStyle={&quot;curved&quot;:0,&quot;rounded&quot;:0};" vertex="1" parent="1">
          <mxGeometry x="600" y="120" width="140" height="570" as="geometry" />
        </mxCell>
        <mxCell id="3qFaxTtZR_sUx9hn0ahr-13" value="DialogueController" style="shape=umlLifeline;perimeter=lifelinePerimeter;whiteSpace=wrap;html=1;container=1;dropTarget=0;collapsible=0;recursiveResize=0;outlineConnect=0;portConstraint=eastwest;newEdgeStyle={&quot;curved&quot;:0,&quot;rounded&quot;:0};" vertex="1" parent="1">
          <mxGeometry x="420" y="120" width="140" height="700" as="geometry" />
        </mxCell>
        <mxCell id="3qFaxTtZR_sUx9hn0ahr-73" value="" style="html=1;points=[[0,0,0,0,5],[0,1,0,0,-5],[1,0,0,0,5],[1,1,0,0,-5]];perimeter=orthogonalPerimeter;outlineConnect=0;targetShapes=umlLifeline;portConstraint=eastwest;newEdgeStyle={&quot;curved&quot;:0,&quot;rounded&quot;:0};" vertex="1" parent="3qFaxTtZR_sUx9hn0ahr-13">
          <mxGeometry x="65" y="110" width="10" height="380" as="geometry" />
        </mxCell>
        <mxCell id="3qFaxTtZR_sUx9hn0ahr-132" value="" style="html=1;points=[[0,0,0,0,5],[0,1,0,0,-5],[1,0,0,0,5],[1,1,0,0,-5]];perimeter=orthogonalPerimeter;outlineConnect=0;targetShapes=umlLifeline;portConstraint=eastwest;newEdgeStyle={&quot;curved&quot;:0,&quot;rounded&quot;:0};" vertex="1" parent="3qFaxTtZR_sUx9hn0ahr-13">
          <mxGeometry x="65" y="640" width="10" height="40" as="geometry" />
        </mxCell>
        <mxCell id="3qFaxTtZR_sUx9hn0ahr-15" value="DialogueEntry" style="shape=umlLifeline;perimeter=lifelinePerimeter;whiteSpace=wrap;html=1;container=1;dropTarget=0;collapsible=0;recursiveResize=0;outlineConnect=0;portConstraint=eastwest;newEdgeStyle={&quot;curved&quot;:0,&quot;rounded&quot;:0};" vertex="1" parent="1">
          <mxGeometry x="780" y="120" width="140" height="700" as="geometry" />
        </mxCell>
        <mxCell id="3qFaxTtZR_sUx9hn0ahr-77" value="" style="html=1;points=[[0,0,0,0,5],[0,1,0,0,-5],[1,0,0,0,5],[1,1,0,0,-5]];perimeter=orthogonalPerimeter;outlineConnect=0;targetShapes=umlLifeline;portConstraint=eastwest;newEdgeStyle={&quot;curved&quot;:0,&quot;rounded&quot;:0};" vertex="1" parent="3qFaxTtZR_sUx9hn0ahr-15">
          <mxGeometry x="65" y="140" width="10" height="220" as="geometry" />
        </mxCell>
        <mxCell id="3qFaxTtZR_sUx9hn0ahr-112" value="" style="html=1;points=[[0,0,0,0,5],[0,1,0,0,-5],[1,0,0,0,5],[1,1,0,0,-5]];perimeter=orthogonalPerimeter;outlineConnect=0;targetShapes=umlLifeline;portConstraint=eastwest;newEdgeStyle={&quot;curved&quot;:0,&quot;rounded&quot;:0};" vertex="1" parent="3qFaxTtZR_sUx9hn0ahr-15">
          <mxGeometry x="65" y="400" width="10" height="50" as="geometry" />
        </mxCell>
        <mxCell id="3qFaxTtZR_sUx9hn0ahr-42" value="dialoguePaneClicked" style="html=1;verticalAlign=bottom;endArrow=block;curved=0;rounded=0;" edge="1" parent="1" source="3qFaxTtZR_sUx9hn0ahr-14" target="3qFaxTtZR_sUx9hn0ahr-41">
          <mxGeometry width="80" relative="1" as="geometry">
            <mxPoint x="170" y="220" as="sourcePoint" />
            <mxPoint x="250" y="220" as="targetPoint" />
          </mxGeometry>
        </mxCell>
        <mxCell id="3qFaxTtZR_sUx9hn0ahr-72" value="&lt;div&gt;if choicePanel is not visible&lt;/div&gt;showNextDialogue" style="html=1;verticalAlign=bottom;endArrow=block;curved=0;rounded=0;" edge="1" parent="1">
          <mxGeometry width="80" relative="1" as="geometry">
            <mxPoint x="315" y="249.9999999999999" as="sourcePoint" />
            <mxPoint x="485" y="249.9999999999999" as="targetPoint" />
          </mxGeometry>
        </mxCell>
        <mxCell id="3qFaxTtZR_sUx9hn0ahr-74" value="Scene" style="shape=umlLifeline;perimeter=lifelinePerimeter;whiteSpace=wrap;html=1;container=1;dropTarget=0;collapsible=0;recursiveResize=0;outlineConnect=0;portConstraint=eastwest;newEdgeStyle={&quot;curved&quot;:0,&quot;rounded&quot;:0};" vertex="1" parent="1">
          <mxGeometry x="600" y="120" width="140" height="700" as="geometry" />
        </mxCell>
        <mxCell id="3qFaxTtZR_sUx9hn0ahr-75" value="" style="html=1;points=[[0,0,0,0,5],[0,1,0,0,-5],[1,0,0,0,5],[1,1,0,0,-5]];perimeter=orthogonalPerimeter;outlineConnect=0;targetShapes=umlLifeline;portConstraint=eastwest;newEdgeStyle={&quot;curved&quot;:0,&quot;rounded&quot;:0};" vertex="1" parent="3qFaxTtZR_sUx9hn0ahr-74">
          <mxGeometry x="65" y="140" width="10" height="40" as="geometry" />
        </mxCell>
        <mxCell id="3qFaxTtZR_sUx9hn0ahr-76" value="&lt;div&gt;call instance currentScene&lt;/div&gt;&lt;div&gt;getDialogue()[next index]&lt;/div&gt;" style="html=1;verticalAlign=bottom;endArrow=block;curved=0;rounded=0;" edge="1" parent="1">
          <mxGeometry width="80" relative="1" as="geometry">
            <mxPoint x="495" y="268.9999999999999" as="sourcePoint" />
            <mxPoint x="665" y="268.9999999999999" as="targetPoint" />
          </mxGeometry>
        </mxCell>
        <mxCell id="3qFaxTtZR_sUx9hn0ahr-78" value="&lt;div&gt;display(current&lt;/div&gt;&lt;div&gt;DialogueController)&lt;/div&gt;" style="html=1;verticalAlign=bottom;endArrow=block;curved=0;rounded=0;" edge="1" parent="1">
          <mxGeometry x="0.0026" width="80" relative="1" as="geometry">
            <mxPoint x="676" y="289.9999999999999" as="sourcePoint" />
            <mxPoint x="846" y="289.9999999999999" as="targetPoint" />
            <mxPoint as="offset" />
          </mxGeometry>
        </mxCell>
        <mxCell id="3qFaxTtZR_sUx9hn0ahr-80" value="" style="line;strokeWidth=1;fillColor=none;align=left;verticalAlign=middle;spacingTop=-1;spacingLeft=3;spacingRight=3;rotatable=0;labelPosition=right;points=[];portConstraint=eastwest;strokeColor=inherit;dashed=1;dashPattern=8 8;" vertex="1" parent="1">
          <mxGeometry x="120" y="310" width="980" height="8" as="geometry" />
        </mxCell>
        <mxCell id="3qFaxTtZR_sUx9hn0ahr-81" value="if TextDialogueEntry" style="text;html=1;align=center;verticalAlign=middle;resizable=0;points=[];autosize=1;strokeColor=none;fillColor=none;" vertex="1" parent="1">
          <mxGeometry x="350" y="318" width="130" height="30" as="geometry" />
        </mxCell>
        <mxCell id="3qFaxTtZR_sUx9hn0ahr-93" value="" style="line;strokeWidth=1;fillColor=none;align=left;verticalAlign=middle;spacingTop=-1;spacingLeft=3;spacingRight=3;rotatable=0;labelPosition=right;points=[];portConstraint=eastwest;strokeColor=inherit;dashed=1;dashPattern=8 8;" vertex="1" parent="1">
          <mxGeometry x="120" y="410" width="980" height="8" as="geometry" />
        </mxCell>
        <mxCell id="3qFaxTtZR_sUx9hn0ahr-94" value="if ChoiceDIalogueEntry" style="text;html=1;align=center;verticalAlign=middle;resizable=0;points=[];autosize=1;strokeColor=none;fillColor=none;" vertex="1" parent="1">
          <mxGeometry x="340" y="418" width="150" height="30" as="geometry" />
        </mxCell>
        <mxCell id="3qFaxTtZR_sUx9hn0ahr-101" value="&lt;div&gt;getChoicePanel&lt;/div&gt;" style="html=1;verticalAlign=bottom;endArrow=none;curved=0;rounded=0;startFill=1;startArrow=block;" edge="1" parent="1">
          <mxGeometry width="80" relative="1" as="geometry">
            <mxPoint x="315" y="504.9999999999999" as="sourcePoint" />
            <mxPoint x="485" y="504.9999999999999" as="targetPoint" />
          </mxGeometry>
        </mxCell>
        <mxCell id="3qFaxTtZR_sUx9hn0ahr-102" value="ChoicePanel" style="shape=umlLifeline;perimeter=lifelinePerimeter;whiteSpace=wrap;html=1;container=1;dropTarget=0;collapsible=0;recursiveResize=0;outlineConnect=0;portConstraint=eastwest;newEdgeStyle={&quot;curved&quot;:0,&quot;rounded&quot;:0};" vertex="1" parent="1">
          <mxGeometry x="960" y="120" width="140" height="700" as="geometry" />
        </mxCell>
        <mxCell id="3qFaxTtZR_sUx9hn0ahr-109" value="" style="html=1;points=[[0,0,0,0,5],[0,1,0,0,-5],[1,0,0,0,5],[1,1,0,0,-5]];perimeter=orthogonalPerimeter;outlineConnect=0;targetShapes=umlLifeline;portConstraint=eastwest;newEdgeStyle={&quot;curved&quot;:0,&quot;rounded&quot;:0};" vertex="1" parent="3qFaxTtZR_sUx9hn0ahr-102">
          <mxGeometry x="65" y="470" width="10" height="160" as="geometry" />
        </mxCell>
        <mxCell id="3qFaxTtZR_sUx9hn0ahr-120" value="set&lt;div&gt;Visible&lt;/div&gt;&lt;div&gt;(false)&lt;/div&gt;" style="html=1;align=left;spacingLeft=2;endArrow=block;rounded=0;edgeStyle=orthogonalEdgeStyle;curved=0;rounded=0;" edge="1" target="3qFaxTtZR_sUx9hn0ahr-109" parent="3qFaxTtZR_sUx9hn0ahr-102" source="3qFaxTtZR_sUx9hn0ahr-109">
          <mxGeometry relative="1" as="geometry">
            <mxPoint x="90" y="550" as="sourcePoint" />
            <Array as="points" />
            <mxPoint x="95" y="579.9999999999998" as="targetPoint" />
          </mxGeometry>
        </mxCell>
        <mxCell id="3qFaxTtZR_sUx9hn0ahr-104" value="&lt;div&gt;updateSpeaker()&lt;/div&gt;" style="html=1;verticalAlign=bottom;endArrow=none;curved=0;rounded=0;startFill=1;startArrow=block;" edge="1" parent="1">
          <mxGeometry x="0.0026" width="80" relative="1" as="geometry">
            <mxPoint x="495.0000000000002" y="340" as="sourcePoint" />
            <mxPoint x="845" y="340" as="targetPoint" />
            <mxPoint as="offset" />
          </mxGeometry>
        </mxCell>
        <mxCell id="3qFaxTtZR_sUx9hn0ahr-105" value="&lt;div&gt;updateText()&lt;/div&gt;" style="html=1;verticalAlign=bottom;endArrow=none;curved=0;rounded=0;startFill=1;startArrow=block;" edge="1" parent="1">
          <mxGeometry x="0.0026" width="80" relative="1" as="geometry">
            <mxPoint x="495.0000000000002" y="370" as="sourcePoint" />
            <mxPoint x="845" y="370" as="targetPoint" />
            <mxPoint as="offset" />
          </mxGeometry>
        </mxCell>
        <mxCell id="3qFaxTtZR_sUx9hn0ahr-106" value="&lt;div&gt;updateCharacter()&lt;/div&gt;" style="html=1;verticalAlign=bottom;endArrow=none;curved=0;rounded=0;startFill=1;startArrow=block;" edge="1" parent="1">
          <mxGeometry x="0.0026" width="80" relative="1" as="geometry">
            <mxPoint x="495.0000000000002" y="400" as="sourcePoint" />
            <mxPoint x="845" y="400" as="targetPoint" />
            <mxPoint as="offset" />
          </mxGeometry>
        </mxCell>
        <mxCell id="3qFaxTtZR_sUx9hn0ahr-107" value="&lt;div&gt;updateCharacter()&lt;/div&gt;" style="html=1;verticalAlign=bottom;endArrow=none;curved=0;rounded=0;startFill=1;startArrow=block;" edge="1" parent="1">
          <mxGeometry x="0.0026" width="80" relative="1" as="geometry">
            <mxPoint x="495.0000000000002" y="440" as="sourcePoint" />
            <mxPoint x="845" y="440" as="targetPoint" />
            <mxPoint as="offset" />
          </mxGeometry>
        </mxCell>
        <mxCell id="3qFaxTtZR_sUx9hn0ahr-108" value="&lt;div&gt;updateChoicePanel()&lt;/div&gt;" style="html=1;verticalAlign=bottom;endArrow=none;curved=0;rounded=0;startFill=1;startArrow=block;" edge="1" parent="1">
          <mxGeometry x="0.0026" width="80" relative="1" as="geometry">
            <mxPoint x="495.0000000000002" y="470" as="sourcePoint" />
            <mxPoint x="845" y="470" as="targetPoint" />
            <mxPoint as="offset" />
          </mxGeometry>
        </mxCell>
        <mxCell id="3qFaxTtZR_sUx9hn0ahr-113" value="&lt;div&gt;getChoices()&lt;/div&gt;" style="html=1;verticalAlign=bottom;endArrow=block;curved=0;rounded=0;startFill=0;startArrow=none;endFill=1;" edge="1" parent="1">
          <mxGeometry x="0.0026" width="80" relative="1" as="geometry">
            <mxPoint x="495.0000000000002" y="530" as="sourcePoint" />
            <mxPoint x="845" y="530" as="targetPoint" />
            <mxPoint as="offset" />
          </mxGeometry>
        </mxCell>
        <mxCell id="3qFaxTtZR_sUx9hn0ahr-114" value="&lt;div&gt;return List&amp;lt;Choice&amp;gt; choices&lt;/div&gt;" style="html=1;verticalAlign=bottom;endArrow=none;curved=0;rounded=0;startFill=1;startArrow=block;dashed=1;" edge="1" parent="1">
          <mxGeometry x="0.0026" width="80" relative="1" as="geometry">
            <mxPoint x="495.0000000000002" y="560" as="sourcePoint" />
            <mxPoint x="845" y="560" as="targetPoint" />
            <mxPoint as="offset" />
          </mxGeometry>
        </mxCell>
        <mxCell id="3qFaxTtZR_sUx9hn0ahr-115" value="&lt;div&gt;showChoices(choices)&lt;/div&gt;" style="html=1;verticalAlign=bottom;endArrow=block;curved=0;rounded=0;startFill=0;startArrow=none;endFill=1;" edge="1" parent="1" target="3qFaxTtZR_sUx9hn0ahr-109">
          <mxGeometry x="0.0026" width="80" relative="1" as="geometry">
            <mxPoint x="495.0000000000002" y="600" as="sourcePoint" />
            <mxPoint x="845" y="600" as="targetPoint" />
            <mxPoint as="offset" />
          </mxGeometry>
        </mxCell>
        <mxCell id="3qFaxTtZR_sUx9hn0ahr-116" value="" style="line;strokeWidth=1;fillColor=none;align=left;verticalAlign=middle;spacingTop=-1;spacingLeft=3;spacingRight=3;rotatable=0;labelPosition=right;points=[];portConstraint=eastwest;strokeColor=inherit;dashed=1;dashPattern=8 8;" vertex="1" parent="1">
          <mxGeometry x="110" y="610" width="990" height="8" as="geometry" />
        </mxCell>
        <mxCell id="3qFaxTtZR_sUx9hn0ahr-118" value="Click on choice&#39;s button" style="html=1;verticalAlign=bottom;endArrow=block;curved=0;rounded=0;" edge="1" parent="1" source="3qFaxTtZR_sUx9hn0ahr-117" target="3qFaxTtZR_sUx9hn0ahr-109">
          <mxGeometry width="80" relative="1" as="geometry">
            <mxPoint x="150" y="650" as="sourcePoint" />
            <mxPoint x="310" y="650" as="targetPoint" />
          </mxGeometry>
        </mxCell>
        <mxCell id="3qFaxTtZR_sUx9hn0ahr-126" value="Choice" style="shape=umlLifeline;perimeter=lifelinePerimeter;whiteSpace=wrap;html=1;container=1;dropTarget=0;collapsible=0;recursiveResize=0;outlineConnect=0;portConstraint=eastwest;newEdgeStyle={&quot;curved&quot;:0,&quot;rounded&quot;:0};" vertex="1" parent="1">
          <mxGeometry x="1140" y="120" width="60" height="700" as="geometry" />
        </mxCell>
        <mxCell id="3qFaxTtZR_sUx9hn0ahr-129" value="" style="html=1;points=[[0,0,0,0,5],[0,1,0,0,-5],[1,0,0,0,5],[1,1,0,0,-5]];perimeter=orthogonalPerimeter;outlineConnect=0;targetShapes=umlLifeline;portConstraint=eastwest;newEdgeStyle={&quot;curved&quot;:0,&quot;rounded&quot;:0};" vertex="1" parent="3qFaxTtZR_sUx9hn0ahr-126">
          <mxGeometry x="25" y="600" width="10" height="80" as="geometry" />
        </mxCell>
        <mxCell id="3qFaxTtZR_sUx9hn0ahr-130" value="&lt;div&gt;call&lt;/div&gt;&lt;div&gt;choice&amp;nbsp;&lt;/div&gt;&lt;div&gt;action&lt;/div&gt;" style="html=1;verticalAlign=bottom;endArrow=none;curved=0;rounded=0;startFill=1;startArrow=block;" edge="1" parent="1" source="3qFaxTtZR_sUx9hn0ahr-129" target="3qFaxTtZR_sUx9hn0ahr-109">
          <mxGeometry x="0.0026" width="80" relative="1" as="geometry">
            <mxPoint x="950" y="740" as="sourcePoint" />
            <mxPoint x="980" y="740" as="targetPoint" />
            <mxPoint as="offset" />
            <Array as="points">
              <mxPoint x="1120" y="740" />
            </Array>
          </mxGeometry>
        </mxCell>
        <mxCell id="3qFaxTtZR_sUx9hn0ahr-133" value="&lt;div&gt;transitionToScene() / transitionToMinigame()&lt;/div&gt;" style="html=1;verticalAlign=bottom;endArrow=none;curved=0;rounded=0;startFill=1;startArrow=block;" edge="1" parent="1" target="3qFaxTtZR_sUx9hn0ahr-129">
          <mxGeometry x="0.0026" width="80" relative="1" as="geometry">
            <mxPoint x="495.0000000000002" y="780" as="sourcePoint" />
            <mxPoint x="845" y="780" as="targetPoint" />
            <mxPoint as="offset" />
          </mxGeometry>
        </mxCell>
      </root>
    </mxGraphModel>
  </diagram>
</mxfile>
